<svg xmlns="http://www.w3.org/2000/svg" viewBox="0 0 24 24" fill="currentColor" xml:space="preserve">
    <path d="M23.3 5.3c-.4-2.6-2.6-4.6-5.3-5-.5-.1-2.2-.3-6.2-.3S7 .2 6.5.3C3.9.7 1.5 2.5.9 5.1.6 6.4.6 7.8.6 9.1c.1 1.9.1 3.7.3 5.6.1 1.3.3 2.5.6 3.7.6 2.2 2.8 4.1 5 4.9 2.3.8 4.9.9 7.3.4.3-.1.5-.1.8-.2.6-.2 1.3-.4 1.8-.8v-1.8c-1.5.4-3.1.5-4.7.5-2.7 0-3.5-1.3-3.7-1.8-.2-.5-.3-.9-.3-1.4 1.5.4 3.1.5 4.6.5h1.1c1.6 0 3.2-.1 4.8-.4h.1c2.4-.5 4.8-1.9 5-5.6V11c0-.7.2-3.8 0-5.7zm-3.8 9.2H17V8.3c0-1.3-.6-2-1.7-2-1.2 0-1.9.8-1.9 2.3V12h-2.6V8.7c0-1.6-.6-2.3-1.9-2.3-1.1 0-1.7.7-1.7 2v6.2H4.8V8.1c0-1.3.3-2.3 1-3.1.7-.8 1.6-1.2 2.7-1.2 1.3 0 2.3.5 3 1.5l.6 1.1.6-1.1c.7-1 1.7-1.5 3-1.5 1.1 0 2 .4 2.7 1.2.7.8 1 1.8 1 3.1l.1 6.4z"/>
</svg>
