<svg width="512" height="512" viewBox="0 0 512 512" fill="none" xmlns="http://www.w3.org/2000/svg">
<g clip-path="url(#clip0_806_189)">
<path d="M435.5 273.508C435.5 210.81 392.026 157.211 337.344 134.711L300.5 198.484V111.002C300.5 104.062 294.945 98.5 287.984 98.5H223.016C216.055 98.5 210.5 104.062 210.5 111.002V198.47L173.656 134.732C118.974 157.211 75.5 210.789 75.5 273.508L75.493 323.5H435.493L435.5 273.508ZM457.086 352.82C455.328 348.672 451.25 346 446.75 346H64.25C59.7676 346 55.7 348.68 53.9211 352.789C52.1415 356.92 52.9761 361.712 56.0741 364.982C57.9437 366.953 103.639 413.5 254.867 413.5C406.095 413.5 451.813 366.96 454.273 364.984C458 361.68 458.844 356.898 457.086 352.82Z" fill="#E57373"/>
</g>
<defs>
<clipPath id="clip0_806_189">
<rect width="405" height="360" fill="white" transform="translate(53 76)"/>
</clipPath>
</defs>
</svg>
