<svg width="512" height="512" viewBox="0 0 512 512" fill="none" xmlns="http://www.w3.org/2000/svg">
<rect width="512" height="512" fill="#33691E"/>
<path d="M194.438 278.211C194.438 276.383 194.156 274.742 193.594 273.289C193.078 271.789 192.094 270.43 190.641 269.211C189.188 267.945 187.148 266.703 184.523 265.484C181.898 264.266 178.5 263 174.328 261.688C169.688 260.188 165.281 258.5 161.109 256.625C156.984 254.75 153.328 252.57 150.141 250.086C147 247.555 144.516 244.625 142.688 241.297C140.906 237.969 140.016 234.102 140.016 229.695C140.016 225.43 140.953 221.562 142.828 218.094C144.703 214.578 147.328 211.578 150.703 209.094C154.078 206.562 158.062 204.617 162.656 203.258C167.297 201.898 172.383 201.219 177.914 201.219C185.461 201.219 192.047 202.578 197.672 205.297C203.297 208.016 207.656 211.742 210.75 216.477C213.891 221.211 215.461 226.625 215.461 232.719H194.508C194.508 229.719 193.875 227.094 192.609 224.844C191.391 222.547 189.516 220.742 186.984 219.43C184.5 218.117 181.359 217.461 177.562 217.461C173.906 217.461 170.859 218.023 168.422 219.148C165.984 220.227 164.156 221.703 162.938 223.578C161.719 225.406 161.109 227.469 161.109 229.766C161.109 231.5 161.531 233.07 162.375 234.477C163.266 235.883 164.578 237.195 166.312 238.414C168.047 239.633 170.18 240.781 172.711 241.859C175.242 242.938 178.172 243.992 181.5 245.023C187.078 246.711 191.977 248.609 196.195 250.719C200.461 252.828 204.023 255.195 206.883 257.82C209.742 260.445 211.898 263.422 213.352 266.75C214.805 270.078 215.531 273.852 215.531 278.07C215.531 282.523 214.664 286.508 212.93 290.023C211.195 293.539 208.688 296.516 205.406 298.953C202.125 301.391 198.211 303.242 193.664 304.508C189.117 305.773 184.031 306.406 178.406 306.406C173.344 306.406 168.352 305.75 163.43 304.438C158.508 303.078 154.031 301.039 150 298.32C146.016 295.602 142.828 292.133 140.438 287.914C138.047 283.695 136.852 278.703 136.852 272.938H158.016C158.016 276.125 158.508 278.82 159.492 281.023C160.477 283.227 161.859 285.008 163.641 286.367C165.469 287.727 167.625 288.711 170.109 289.32C172.641 289.93 175.406 290.234 178.406 290.234C182.062 290.234 185.062 289.719 187.406 288.688C189.797 287.656 191.555 286.227 192.68 284.398C193.852 282.57 194.438 280.508 194.438 278.211ZM266.789 283.625L290.906 202.625H314.391L278.742 305H263.273L266.789 283.625ZM244.57 202.625L268.617 283.625L272.273 305H256.664L221.227 202.625H244.57ZM404.109 251.492V292.062C402.516 293.984 400.055 296.07 396.727 298.32C393.398 300.523 389.109 302.422 383.859 304.016C378.609 305.609 372.258 306.406 364.805 306.406C358.195 306.406 352.172 305.328 346.734 303.172C341.297 300.969 336.609 297.758 332.672 293.539C328.781 289.32 325.781 284.164 323.672 278.07C321.562 271.93 320.508 264.922 320.508 257.047V250.648C320.508 242.773 321.516 235.766 323.531 229.625C325.594 223.484 328.523 218.305 332.32 214.086C336.117 209.867 340.641 206.656 345.891 204.453C351.141 202.25 356.977 201.148 363.398 201.148C372.305 201.148 379.617 202.602 385.336 205.508C391.055 208.367 395.414 212.352 398.414 217.461C401.461 222.523 403.336 228.336 404.039 234.898H383.578C383.062 231.43 382.078 228.406 380.625 225.828C379.172 223.25 377.086 221.234 374.367 219.781C371.695 218.328 368.227 217.602 363.961 217.602C360.445 217.602 357.305 218.328 354.539 219.781C351.82 221.188 349.523 223.273 347.648 226.039C345.773 228.805 344.344 232.227 343.359 236.305C342.375 240.383 341.883 245.117 341.883 250.508V257.047C341.883 262.391 342.398 267.125 343.43 271.25C344.461 275.328 345.984 278.773 348 281.586C350.062 284.352 352.594 286.438 355.594 287.844C358.594 289.25 362.086 289.953 366.07 289.953C369.398 289.953 372.164 289.672 374.367 289.109C376.617 288.547 378.422 287.867 379.781 287.07C381.188 286.227 382.266 285.43 383.016 284.68V266.539H363.75V251.492H404.109Z" fill="white"/>
</svg>
