<svg width="512" height="512" viewBox="0 0 512 512" fill="none" xmlns="http://www.w3.org/2000/svg">
<path d="M43.0469 274.047C33.0799 264.08 33.0799 247.92 43.0469 237.953L237.953 43.0469C247.92 33.0799 264.08 33.0799 274.047 43.0469L468.953 237.953C478.92 247.92 478.92 264.08 468.953 274.047L274.047 468.953C264.08 478.92 247.92 478.92 237.953 468.953L43.0469 274.047Z" fill="#4A148C"/>
<path d="M224.777 148.057C221.736 146.941 219.101 147.601 216.871 150.037L184.946 186.588C183.73 188.111 183.172 189.837 183.274 191.766C183.375 193.695 184.186 195.269 185.706 196.487C187.125 197.807 188.797 198.416 190.723 198.315C192.649 198.213 194.27 197.401 195.588 195.878L215.199 173.491V202.731L184.946 237.302C183.73 238.724 183.172 240.45 183.274 242.481C183.375 244.41 184.186 245.983 185.706 247.202C187.125 248.522 188.797 249.131 190.723 249.029C192.649 248.826 194.27 248.014 195.588 246.593L215.199 224.053V357.464C215.199 360.916 216.821 363.149 220.064 364.164C220.774 364.368 221.483 364.469 222.192 364.469C222.902 364.469 223.611 364.368 224.321 364.164C227.564 363.149 229.186 360.916 229.186 357.464V154.758C229.186 151.509 227.716 149.276 224.777 148.057Z" fill="white"/>
<path d="M289.236 148.057C286.196 146.941 283.561 147.601 281.331 150.037L249.405 186.588C248.189 188.111 247.632 189.837 247.733 191.766C247.834 193.695 248.645 195.269 250.165 196.487C251.584 197.807 253.257 198.416 255.182 198.315C257.108 198.213 258.73 197.401 260.047 195.878L279.659 173.491V202.731L249.405 237.302C248.189 238.724 247.632 240.45 247.733 242.481C247.834 244.41 248.645 245.983 250.165 247.202C251.584 248.522 253.257 249.131 255.182 249.029C257.108 248.826 258.73 248.014 260.047 246.593L279.659 224.053V357.464C279.659 360.916 281.28 363.149 284.523 364.164C285.233 364.368 285.942 364.469 286.652 364.469C287.361 364.469 288.071 364.368 288.78 364.164C292.023 363.149 293.645 360.916 293.645 357.464V154.758C293.645 151.509 292.175 149.276 289.236 148.057Z" fill="white"/>
</svg>
