<svg fill="currentColor" viewBox="0 0 24 24" aria-hidden="true">
  <path d="M18.7143 2H3.2817C2.57455 2 2 2.58259 2 3.29777V18.7022C2 19.4174 2.57455 20 3.2817 20H18.7143C19.4214 20 20 19.4174 20 18.7022V3.29777C20 2.58259 19.4214 2 18.7143 2ZM7.44018 17.4286H4.77232V8.83839H7.4442V17.4286H7.44018ZM6.10625 7.66518C5.25045 7.66518 4.55938 6.97009 4.55938 6.1183C4.55938 5.26652 5.25045 4.57143 6.10625 4.57143C6.95804 4.57143 7.65313 5.26652 7.65313 6.1183C7.65313 6.97411 6.96205 7.66518 6.10625 7.66518ZM17.4406 17.4286H14.7728V13.25C14.7728 12.2536 14.7527 10.9719 13.3866 10.9719C11.9964 10.9719 11.7835 12.0567 11.7835 13.1777V17.4286H9.11563V8.83839H11.675V10.0116H11.7112C12.0688 9.33661 12.9406 8.62545 14.2384 8.62545C16.9384 8.62545 17.4406 10.4054 17.4406 12.7196V17.4286Z" />
</svg>
