<svg fill="currentColor" viewBox="0 0 24 24" aria-hidden="true">
  <path d="M9.14611 18.4269C9.14611 19.848 7.99411 21 6.57303 21C5.15196 21 4 19.848 4 18.4269C4 17.0059 5.152 15.8539 6.57307 15.8539C7.99415 15.8539 9.14611 17.0059 9.14611 18.4269V18.4269ZM16.2039 20.3254C15.8682 14.1138 10.8929 9.13214 4.67464 8.79613C4.30761 8.77628 4 9.07119 4 9.43875V11.3701C4 11.7082 4.26076 11.9917 4.59814 12.0137C9.09138 12.3063 12.693 15.899 12.9863 20.4018C13.0083 20.7392 13.2918 21 13.6299 21H15.5612C15.9288 21 16.2237 20.6924 16.2039 20.3254ZM21.9996 20.3369C21.6623 10.9424 14.1035 3.33932 4.66307 3.00042C4.30025 2.9874 4 3.2805 4 3.64352V5.57482C4 5.92136 4.27462 6.20341 4.62088 6.21763C12.3022 6.53259 18.4675 12.6991 18.7824 20.3792C18.7966 20.7254 19.0786 21 19.4252 21H21.3565C21.7195 21 22.0126 20.6997 21.9996 20.3369V20.3369Z" />
</svg>
